<?xml version="1.0" encoding="utf-8"?>
<!-- Generator: Adobe Illustrator 23.0.5, SVG Export Plug-In . SVG Version: 6.00 Build 0)  -->
<svg version="1.1" id="Layer_1" xmlns="http://www.w3.org/2000/svg" xmlns:xlink="http://www.w3.org/1999/xlink" x="0px" y="0px"
	 viewBox="0 0 175 50" style="enable-background:new 0 0 175 50;" xml:space="preserve">
<style type="text/css">
	.st0{fill-rule:evenodd;clip-rule:evenodd;}
	.st1{fill-rule:evenodd;clip-rule:evenodd;fill:#FFFFFF;}
	.st2{fill:#FFFFFF;}
</style>
<g>
	<g>
		<path class="st0" d="M25.87,7.48c0.04,0.04,0.29,0.24,0.56,0.44c0.26,0.2,0.47,0.38,0.47,0.4c0,0.02-0.35,0.25-0.77,0.51
			c-2.12,1.31-5.64,3.96-6.6,4.96c-1.85,1.93-2.5,4.89-1.9,8.76c0.13,0.87,0.3,1.62,0.63,2.81c0.32,1.13,0.33,1.54,0.11,2.22
			c-0.4,1.2-1.6,2.72-3.38,4.31c-0.16,0.14-0.27,0.25-0.24,0.23c0.29-0.16,3.37-1.93,4.21-2.41c0.59-0.35,1.18-0.67,1.31-0.73
			l0.23-0.1l0.49,0.32l0.49,0.32l-0.01,0.62c-0.01,1.11-0.09,4.32-0.11,4.34c-0.01,0.02-0.52,0.09-1.13,0.16
			c-3.56,0.45-7.14,1.24-10.32,2.28c-0.41,0.13-0.74,0.25-0.72,0.26c0.01,0.01,0.47-0.09,1.01-0.22
			c11.48-2.78,23.74-2.59,34.79,0.53c0.57,0.16,1.06,0.3,1.08,0.29c0.07-0.01-1.28-0.53-2.21-0.86c-3.05-1.08-6.89-1.98-9.93-2.33
			c-0.32-0.04-0.61-0.09-0.64-0.11c-0.06-0.03-0.15-2.65-0.15-4.39l-0.01-0.59l0.46-0.3l0.46-0.31l0.25,0.11
			c0.14,0.06,0.4,0.21,0.59,0.32c0.28,0.17,4.63,2.68,4.84,2.78c0.03,0.02-0.06-0.08-0.22-0.21c-1.35-1.18-2.63-2.69-3.14-3.69
			c-0.22-0.43-0.39-0.99-0.43-1.38c-0.02-0.28,0-0.46,0.11-0.86c0.07-0.28,0.22-0.84,0.32-1.24c0.47-1.76,0.65-3.08,0.65-4.78
			c0-1.12-0.02-1.39-0.12-1.99c-0.32-1.8-0.93-3.09-1.97-4.18c-0.96-1-4.48-3.65-6.6-4.96c-0.43-0.26-0.77-0.49-0.77-0.51
			c0-0.02,0.21-0.2,0.47-0.4c0.26-0.2,0.51-0.4,0.55-0.44c0.1-0.09-0.35,0.13-0.93,0.46l-0.42,0.23l-0.42-0.23
			C26.22,7.61,25.77,7.39,25.87,7.48z M27.72,8.99c3.16,2.78,5.39,5.97,6.13,8.79c0.25,0.94,0.34,1.6,0.34,2.5
			c0,0.97-0.09,1.55-0.42,2.78c-0.47,1.74-0.64,2.76-0.6,3.74l0.02,0.59l-1.24-0.03l-1.24-0.04l0.28,0.13
			c0.39,0.18,0.72,0.64,0.72,1c0,0.06-0.81,0.06-4.4,0.04c-2.42-0.02-4.42-0.04-4.43-0.06c-0.05-0.05,0.12-0.47,0.27-0.66
			c0.09-0.11,0.29-0.25,0.44-0.32l0.28-0.13l-1.29,0.04l-1.29,0.03l0.02-0.59c0.03-0.98-0.13-2-0.6-3.74
			c-0.35-1.28-0.42-1.78-0.42-2.76c0-2.72,1.15-5.41,3.6-8.37c0.88-1.07,3.17-3.34,3.37-3.34C27.25,8.6,27.47,8.78,27.72,8.99z
			 M21.42,28.2c0.08,0.11,0.11,0.25,0.09,0.4c0,0.04-0.05,0.07-0.11,0.07c-0.13,0-0.49-0.17-0.49-0.23c0-0.03,0.05-0.15,0.11-0.26
			c0.1-0.18,0.12-0.21,0.22-0.16C21.29,28.06,21.37,28.14,21.42,28.2z M33.47,28.27l0.12,0.24l-0.16,0.08
			c-0.19,0.1-0.36,0.1-0.39,0.01c-0.05-0.15,0.16-0.58,0.29-0.58C33.33,28.03,33.4,28.13,33.47,28.27z M31.62,31.71
			c-0.02,1.11-0.05,2.15-0.06,2.33l-0.03,0.32l-0.39-0.03c-1.48-0.12-3.91-0.16-5.58-0.1c-0.97,0.04-1.94,0.08-2.15,0.1l-0.39,0.03
			l-0.03-0.32c-0.02-0.18-0.04-1.22-0.06-2.33l-0.03-2.01h4.38h4.38L31.62,31.71z"/>
		<path class="st0" d="M26.08,14.43c-1.38,0.29-2.65,1.17-3.43,2.35c-1.56,2.4-1.01,5.63,1.25,7.32c1.02,0.77,2.07,1.12,3.32,1.12
			c1.49,0,2.82-0.55,3.87-1.6c1.81-1.81,2.1-4.68,0.69-6.84c-0.78-1.19-2.06-2.07-3.45-2.35C27.69,14.29,26.72,14.29,26.08,14.43z
			 M28.14,15.14c1.8,0.34,3.26,1.79,3.7,3.65c0.1,0.44,0.12,1.42,0.02,1.87c-0.27,1.31-1.07,2.44-2.21,3.15
			c-0.43,0.26-1.21,0.56-1.66,0.63c-0.23,0.04-0.23,0.03-0.23-0.12c0-0.15,0.02-0.16,0.42-0.25c0.81-0.18,1.41-0.5,2.02-1.06
			c0.63-0.58,1.01-1.19,1.26-2.04c0.12-0.41,0.15-0.57,0.15-1.2c0-0.63-0.02-0.79-0.15-1.2c-0.24-0.81-0.62-1.44-1.2-1.99
			c-0.57-0.53-1.07-0.82-1.84-1.05c-0.41-0.12-0.57-0.15-1.2-0.15c-0.63,0-0.79,0.02-1.2,0.15c-0.77,0.23-1.27,0.52-1.84,1.05
			c-0.58,0.55-0.96,1.17-1.2,1.99c-0.12,0.41-0.15,0.57-0.15,1.2c0,0.63,0.02,0.79,0.15,1.2c0.25,0.85,0.63,1.46,1.26,2.04
			c0.53,0.49,1.25,0.9,1.79,1c0.14,0.03,0.17,0.02,0.17-0.07c0-0.08-0.08-0.13-0.36-0.22c-0.21-0.06-0.52-0.21-0.72-0.32
			c-0.44-0.25-1.26-1.07-1.51-1.49c-0.26-0.45-0.48-1.1-0.56-1.66c-0.11-0.84,0.1-1.86,0.56-2.63c0.24-0.4,1.06-1.23,1.47-1.47
			c0.77-0.45,1.79-0.66,2.63-0.56c0.56,0.08,1.21,0.29,1.66,0.56c0.4,0.24,1.23,1.06,1.47,1.47c0.45,0.77,0.66,1.79,0.56,2.63
			c-0.08,0.56-0.29,1.21-0.56,1.66c-0.24,0.4-1.06,1.23-1.47,1.47c-0.35,0.21-1.02,0.46-1.38,0.52l-0.23,0.04l0.01-1.1l0.02-1.1
			l0.46-0.03c0.43-0.03,0.49-0.05,1.03-0.34c0.48-0.26,0.58-0.3,0.69-0.25c0.35,0.16,0.71-0.04,0.71-0.39c0-0.26-0.15-0.42-0.4-0.45
			c-0.29-0.04-0.51,0.13-0.51,0.38c0,0.16-0.03,0.19-0.59,0.49c-0.44,0.23-0.64,0.31-0.77,0.3c-0.16-0.02-0.11-0.06,0.89-0.82
			l1.06-0.8v-0.77c0-0.71,0.01-0.77,0.1-0.8c0.14-0.04,0.24-0.31,0.19-0.51c-0.04-0.21-0.21-0.33-0.46-0.33
			c-0.41,0-0.58,0.52-0.26,0.81l0.16,0.15v0.67v0.67l-0.63,0.47c-0.35,0.26-0.72,0.53-0.81,0.61l-0.18,0.13v-0.46v-0.46l0.4-0.29
			l0.4-0.29v-0.33c0-0.3,0.01-0.33,0.16-0.44c0.13-0.1,0.16-0.16,0.16-0.34c0-0.45-0.45-0.64-0.77-0.32
			c-0.14,0.15-0.16,0.19-0.13,0.37c0.02,0.12,0.09,0.24,0.17,0.31c0.11,0.09,0.13,0.16,0.13,0.38L29,19.31l-0.39,0.27l-0.39,0.28
			l-0.02,0.63l-0.02,0.63l-0.35,0.28l-0.35,0.27v1.54v1.54l-0.12-0.02l-0.12-0.02l-0.02-2.13l-0.01-2.13l0.35-0.32l0.35-0.32v-1.01
			v-1.01l0.3-0.33c0.25-0.28,0.33-0.33,0.48-0.33c0.26,0,0.35-0.04,0.44-0.23c0.11-0.21,0.06-0.5-0.1-0.61
			c-0.18-0.13-0.45-0.1-0.62,0.06c-0.12,0.12-0.13,0.17-0.11,0.37c0.03,0.23,0.02,0.25-0.31,0.61l-0.35,0.38v0.99v0.99l-0.32,0.32
			c-0.18,0.18-0.32,0.35-0.32,0.39c0,0.11-0.06,0.08-0.28-0.13l-0.21-0.2v-0.52l0.01-0.51l0.43-0.35l0.43-0.34v-0.74
			c0-0.72,0.01-0.74,0.13-0.87c0.13-0.12,0.18-0.37,0.1-0.57c-0.04-0.1-0.3-0.24-0.45-0.24c-0.18,0-0.43,0.29-0.43,0.49
			c0,0.16,0.2,0.43,0.32,0.43c0.03,0,0.05,0.25,0.05,0.7v0.7l-0.28,0.23l-0.29,0.23l-0.02-0.47c-0.01-0.38,0-0.48,0.07-0.52
			c0.04-0.03,0.12-0.12,0.17-0.21c0.06-0.13,0.07-0.2,0.02-0.35c-0.07-0.22-0.19-0.29-0.45-0.29c-0.28,0-0.44,0.16-0.44,0.43
			c0,0.19,0.03,0.25,0.18,0.38l0.17,0.14V19v1.19l0.38,0.34l0.38,0.33v1.9c0,1.04-0.02,1.91-0.03,1.93s-0.08,0.02-0.13,0.01
			c-0.1-0.03-0.1-0.09-0.1-1.59v-1.55l-0.57-0.55l-0.57-0.55v-0.77v-0.77l0.16-0.16c0.32-0.32,0.13-0.77-0.32-0.77
			c-0.29,0-0.43,0.14-0.43,0.43c0,0.21,0.14,0.43,0.27,0.43c0.03,0,0.05,0.17,0.05,0.41v0.4l-0.24-0.17l-0.24-0.17v-0.66V18
			l0.17-0.17c0.15-0.14,0.17-0.19,0.14-0.36c-0.06-0.35-0.3-0.5-0.62-0.39c-0.21,0.07-0.29,0.18-0.29,0.45
			c0,0.19,0.15,0.41,0.27,0.41c0.03,0,0.05,0.29,0.05,0.74v0.74l0.38,0.29L25.33,20v0.27c0,0.21,0.03,0.3,0.12,0.4l0.11,0.12h-0.35
			h-0.35l-0.37-0.38c-0.36-0.36-0.37-0.39-0.36-0.6c0.02-0.31-0.17-0.5-0.46-0.49c-0.42,0.01-0.58,0.49-0.28,0.81
			c0.1,0.11,0.16,0.13,0.32,0.11c0.19-0.03,0.22,0,0.59,0.37l0.39,0.4h0.56h0.56l0.32,0.31l0.32,0.3v1.4v1.39h-0.12
			c-0.25,0-1.18-0.37-1.59-0.62c-1.12-0.7-1.91-1.84-2.18-3.13c-0.1-0.45-0.08-1.43,0.02-1.87c0.28-1.21,0.97-2.22,1.96-2.91
			C25.6,15.16,26.86,14.9,28.14,15.14z M27.38,16.31c0.03,0.06,0.04,0.14,0.02,0.19c-0.04,0.11-0.23,0.16-0.32,0.09
			c-0.08-0.07-0.11-0.28-0.04-0.34C27.11,16.17,27.33,16.22,27.38,16.31z M28.88,16.49c0.19,0.19-0.03,0.49-0.25,0.33
			c-0.14-0.1-0.15-0.2-0.03-0.31C28.7,16.41,28.8,16.4,28.88,16.49z M26.52,17.15c0.14,0.17-0.07,0.44-0.25,0.32
			c-0.19-0.12-0.12-0.4,0.09-0.4C26.41,17.07,26.48,17.11,26.52,17.15z M24.85,17.37c0.14,0.17-0.07,0.44-0.25,0.32
			c-0.19-0.12-0.12-0.4,0.09-0.4C24.74,17.29,24.81,17.33,24.85,17.37z M30.35,17.69c0.1,0.12,0.04,0.33-0.1,0.35
			c-0.24,0.04-0.36-0.17-0.19-0.33C30.16,17.59,30.26,17.59,30.35,17.69z M29.33,18.18c0.08,0.1,0.02,0.28-0.11,0.32
			c-0.06,0.02-0.14,0.01-0.18-0.03c-0.08-0.07-0.11-0.28-0.04-0.34C29.05,18.07,29.26,18.1,29.33,18.18z M25.59,18.27
			c0.12,0.12,0.08,0.31-0.08,0.35c-0.21,0.05-0.33-0.09-0.25-0.28C25.33,18.2,25.48,18.16,25.59,18.27z M23.89,19.69
			c0.05,0.11,0.05,0.16-0.02,0.23c-0.13,0.12-0.37,0.05-0.37-0.11C23.5,19.54,23.78,19.46,23.89,19.69z M30.39,20.7
			c0.03,0.25-0.32,0.33-0.39,0.09c-0.05-0.15,0.07-0.28,0.24-0.25C30.35,20.55,30.38,20.59,30.39,20.7z"/>
		<path class="st0" d="M19.83,37.15c0,0.44,0.01,0.49,0.1,0.49c0.05,0,0.11-0.05,0.13-0.11c0.03-0.1,0.08-0.11,0.51-0.11
			c0.37,0,0.51,0.02,0.57,0.09c0.12,0.12,0.11,0.22-0.04,0.32c-0.1,0.07-0.26,0.08-0.82,0.07l-0.7-0.02l-0.02-0.5l-0.02-0.5h-0.24
			h-0.24v1.75v1.75h0.65h0.65v-0.21v-0.22l-0.25-0.02l-0.26-0.02V39.3v-0.62h0.69c0.66,0,0.7,0.01,0.8,0.13
			c0.13,0.17,0.13,0.29-0.03,0.47c-0.12,0.15-0.16,0.15-0.67,0.17c-0.49,0.02-0.54,0.03-0.54,0.12c0,0.09,0.04,0.1,0.27,0.1h0.27
			v0.27v0.27h0.29c0.39,0,0.66-0.09,0.88-0.29c0.43-0.37,0.52-0.97,0.23-1.48c-0.15-0.26-0.16-0.31-0.1-0.45
			c0.11-0.25,0.04-0.71-0.13-0.94c-0.28-0.37-0.4-0.4-1.23-0.4h-0.74V37.15z"/>
		<path class="st0" d="M24.93,37.7c-0.26,0.57-0.49,1.07-0.5,1.11c-0.02,0.05,0.08,0.07,0.4,0.07h0.43l0.09-0.18l0.09-0.17
			l0.17,0.35c0.09,0.19,0.17,0.38,0.17,0.42c0,0.05-0.09,0.07-0.26,0.07c-0.15,0-0.29,0.02-0.3,0.05c-0.02,0.03,0.24,0.05,0.75,0.05
			h0.78l-0.15-0.34c-0.63-1.39-1.1-2.39-1.13-2.43C25.42,36.68,25.19,37.12,24.93,37.7z"/>
		<path class="st0" d="M28.62,38.34v1.56h0.73h0.73v-0.16c0-0.16-0.01-0.16-0.33-0.17l-0.34-0.02l-0.02-1.22l-0.01-1.22L29,36.94
			l-0.38-0.17V38.34z"/>
		<path class="st0" d="M32.83,37.41v0.65l0.18,0.02c0.16,0.02,0.17,0.03,0.19,0.24l0.02,0.23h0.38h0.37v0.19v0.19h0.61h0.6
			l0.14-0.37l0.14-0.36l-0.92-0.03l-0.92-0.03v-0.3v-0.3l0.93-0.02l0.93-0.01v-0.38v-0.38h-1.32h-1.32V37.41z"/>
		<path class="st0" d="M32.83,39.33v1.05h1.32h1.32v-0.4v-0.4l-0.93-0.01l-0.93-0.02l-0.02-0.29c-0.02-0.25-0.01-0.29,0.09-0.32
			c0.06-0.02,0.11-0.06,0.11-0.1c0-0.06-0.09-0.08-0.38-0.08h-0.38v-0.24c0-0.21-0.02-0.24-0.11-0.24
			C32.84,38.28,32.83,38.32,32.83,39.33z"/>
		<path class="st0" d="M24.01,39.69c-0.15,0.33-0.28,0.62-0.29,0.65c-0.01,0.02,0.17,0.04,0.41,0.04c0.4,0,0.43-0.01,0.49-0.13
			c0.06-0.13,0.06-0.13,0.81-0.13c0.71,0,0.76,0.01,0.79,0.11c0.04,0.14,0.1,0.13,0.46-0.04l0.3-0.15l-0.07-0.18l-0.08-0.17h-0.93
			c-0.52,0-0.95-0.02-0.97-0.03c-0.02-0.02,0.02-0.13,0.07-0.24c0.06-0.11,0.11-0.23,0.11-0.26c0-0.03-0.16-0.05-0.42-0.05h-0.42
			L24.01,39.69z"/>
		<polygon class="st0" points="30.3,39.82 30.3,40.06 29.46,40.06 28.62,40.06 28.62,40.22 28.62,40.38 29.89,40.38 31.16,40.38 
			31.16,39.98 31.16,39.57 30.73,39.57 30.3,39.57 		"/>
		<path class="st0" d="M18.25,41.41c-0.19,0.16-0.28,0.44-0.2,0.67c0.08,0.24,0.34,0.46,0.54,0.46s0.48-0.14,0.48-0.24
			c0-0.12-0.11-0.15-0.22-0.05c-0.21,0.19-0.54,0.07-0.62-0.22c-0.02-0.07,0-0.21,0.04-0.32c0.1-0.23,0.31-0.3,0.54-0.17
			c0.22,0.12,0.33,0.02,0.15-0.13C18.8,41.26,18.43,41.27,18.25,41.41z"/>
		<path class="st0" d="M19.34,41.92c0,0.58,0.01,0.62,0.11,0.62c0.09,0,0.11-0.04,0.11-0.27V42h0.3h0.3v0.27
			c0,0.23,0.02,0.27,0.11,0.27c0.1,0,0.11-0.04,0.11-0.62s-0.01-0.62-0.11-0.62c-0.09,0-0.11,0.04-0.11,0.24v0.24h-0.3h-0.3v-0.24
			c0-0.21-0.02-0.24-0.11-0.24C19.35,41.3,19.34,41.34,19.34,41.92z"/>
		<path class="st0" d="M20.69,41.92c0,0.58,0.01,0.62,0.11,0.62c0.09,0,0.1-0.04,0.12-0.4l0.02-0.4l0.32,0.4
			c0.19,0.24,0.36,0.4,0.42,0.4c0.09,0,0.1-0.05,0.1-0.62c0-0.58-0.01-0.62-0.11-0.62c-0.1,0-0.11,0.04-0.11,0.38
			c0,0.21-0.02,0.38-0.05,0.38c-0.02,0-0.17-0.17-0.33-0.38C20.75,41.13,20.69,41.15,20.69,41.92z"/>
		<path class="st0" d="M22.19,41.41c-0.42,0.33-0.23,1.03,0.3,1.12c0.57,0.09,0.89-0.65,0.47-1.07
			C22.76,41.26,22.4,41.24,22.19,41.41z M22.72,41.49c0.04,0.02,0.12,0.11,0.17,0.19c0.15,0.3-0.02,0.64-0.33,0.64
			c-0.28,0-0.46-0.29-0.35-0.57C22.3,41.5,22.48,41.41,22.72,41.49z"/>
		<path class="st0" d="M23.44,41.92v0.62h0.43c0.39,0,0.43-0.01,0.43-0.11c0-0.1-0.04-0.11-0.32-0.11h-0.32v-0.51
			c0-0.47-0.01-0.51-0.11-0.51C23.45,41.3,23.44,41.34,23.44,41.92z"/>
		<path class="st0" d="M24.56,41.41c-0.42,0.33-0.23,1.03,0.3,1.12c0.57,0.09,0.89-0.65,0.47-1.07
			C25.14,41.26,24.78,41.24,24.56,41.41z M25.09,41.49c0.04,0.02,0.12,0.11,0.17,0.19c0.15,0.3-0.02,0.64-0.33,0.64
			c-0.28,0-0.46-0.29-0.35-0.57C24.67,41.5,24.86,41.41,25.09,41.49z"/>
		<path class="st0" d="M25.91,41.41c-0.22,0.17-0.29,0.44-0.18,0.72c0.13,0.35,0.46,0.5,0.75,0.35c0.09-0.05,0.12-0.05,0.13,0
			c0.01,0.03,0.05,0.06,0.1,0.06c0.05,0,0.08-0.08,0.08-0.32v-0.32h-0.22c-0.16,0-0.22,0.02-0.22,0.08c0,0.05,0.05,0.08,0.13,0.08
			c0.16,0,0.18,0.13,0.03,0.22c-0.39,0.21-0.75-0.14-0.58-0.56c0.1-0.24,0.31-0.31,0.54-0.17c0.22,0.12,0.33,0.02,0.15-0.13
			C26.46,41.26,26.09,41.27,25.91,41.41z"/>
		<path class="st0" d="M27.11,41.7c0.16,0.28,0.22,0.46,0.22,0.62c0,0.18,0.02,0.22,0.11,0.22c0.09,0,0.11-0.04,0.11-0.22
			c0-0.16,0.06-0.34,0.22-0.62c0.2-0.36,0.21-0.4,0.11-0.4c-0.07,0-0.16,0.09-0.28,0.3l-0.17,0.31l-0.16-0.31
			c-0.11-0.22-0.18-0.3-0.26-0.3C26.9,41.3,26.91,41.33,27.11,41.7z"/>
		<path class="st0" d="M28.68,41.41c-0.21,0.21-0.1,0.5,0.21,0.57c0.18,0.04,0.39,0.17,0.39,0.24c0,0.13-0.29,0.15-0.6,0.02
			c-0.05-0.02-0.1,0-0.12,0.05c-0.09,0.22,0.71,0.32,0.87,0.1c0.18-0.25,0.03-0.52-0.35-0.59c-0.23-0.04-0.32-0.15-0.23-0.26
			c0.08-0.1,0.23-0.1,0.39-0.02c0.09,0.05,0.12,0.04,0.16-0.01C29.51,41.31,28.87,41.21,28.68,41.41z"/>
		<path class="st0" d="M29.85,41.41c-0.42,0.33-0.23,1.03,0.3,1.12c0.57,0.09,0.89-0.65,0.47-1.07
			C30.43,41.26,30.06,41.24,29.85,41.41z M30.38,41.49c0.04,0.02,0.12,0.11,0.17,0.19c0.15,0.3-0.02,0.64-0.33,0.64
			c-0.28,0-0.46-0.29-0.35-0.57C29.96,41.5,30.15,41.41,30.38,41.49z"/>
		<path class="st0" d="M31.11,41.92v0.62h0.43c0.39,0,0.43-0.01,0.43-0.11c0-0.1-0.04-0.11-0.32-0.11h-0.32v-0.51
			c0-0.47-0.01-0.51-0.11-0.51C31.11,41.3,31.11,41.34,31.11,41.92z"/>
		<path class="st0" d="M32.08,41.76c0,0.44,0.01,0.47,0.16,0.62c0.12,0.11,0.21,0.16,0.36,0.16c0.15,0,0.24-0.04,0.36-0.16
			c0.15-0.15,0.16-0.18,0.16-0.62c0-0.38-0.02-0.46-0.08-0.46c-0.06,0-0.08,0.07-0.08,0.32c0,0.18-0.04,0.41-0.08,0.51
			c-0.07,0.17-0.1,0.19-0.28,0.19c-0.17,0-0.21-0.02-0.28-0.19c-0.04-0.1-0.08-0.33-0.08-0.51c0-0.25-0.02-0.32-0.08-0.32
			C32.09,41.3,32.08,41.39,32.08,41.76z"/>
		<path class="st0" d="M33.32,41.38c0,0.05,0.06,0.08,0.19,0.08h0.19V42c0,0.5,0.01,0.54,0.11,0.54s0.11-0.04,0.11-0.54v-0.54h0.22
			c0.16,0,0.22-0.02,0.22-0.08c0-0.06-0.09-0.08-0.51-0.08S33.32,41.32,33.32,41.38z"/>
		<ellipse class="st0" cx="34.61" cy="41.92" rx="0.11" ry="0.62"/>
		<path class="st0" d="M35.19,41.41c-0.42,0.33-0.23,1.03,0.3,1.12c0.57,0.09,0.89-0.65,0.47-1.07
			C35.77,41.26,35.41,41.24,35.19,41.41z M35.72,41.49c0.04,0.02,0.12,0.11,0.17,0.19c0.15,0.3-0.02,0.64-0.33,0.64
			c-0.28,0-0.46-0.29-0.35-0.57C35.3,41.5,35.49,41.41,35.72,41.49z"/>
		<path class="st0" d="M36.39,41.92c0,0.58,0.01,0.62,0.11,0.62c0.09,0,0.1-0.04,0.12-0.4l0.02-0.4l0.32,0.4
			c0.19,0.24,0.36,0.4,0.42,0.4c0.09,0,0.1-0.05,0.1-0.62c0-0.58-0.01-0.62-0.11-0.62c-0.1,0-0.11,0.04-0.11,0.38
			c0,0.21-0.02,0.38-0.05,0.38c-0.02,0-0.17-0.17-0.33-0.38C36.45,41.13,36.39,41.15,36.39,41.92z"/>
		<path class="st0" d="M37.8,41.41c-0.21,0.21-0.1,0.5,0.21,0.57c0.18,0.04,0.39,0.17,0.39,0.24c0,0.13-0.29,0.15-0.6,0.02
			c-0.05-0.02-0.1,0-0.12,0.05c-0.09,0.22,0.71,0.32,0.87,0.1c0.18-0.25,0.03-0.52-0.35-0.59c-0.23-0.04-0.32-0.15-0.23-0.26
			c0.08-0.1,0.23-0.1,0.39-0.02c0.09,0.05,0.12,0.04,0.16-0.01C38.63,41.31,37.99,41.21,37.8,41.41z"/>
		<g>
			<path d="M23.57,26.07h-0.26v-0.13h0.66v0.13H23.7v0.79h-0.13V26.07z"/>
			<path d="M24.76,25.94v0.13h-0.53v0.26h0.4v0.13h-0.4v0.26h0.53v0.13H24.1v-0.92H24.76z"/>
			<path d="M25.09,26.73h0.26v-0.07h0.07V26.6h0.13v0.13h-0.07v0.07h-0.07v0.07h-0.4V26.8h-0.07v-0.07h-0.07v-0.66h0.07V26h0.07
				v-0.07h0.4V26h0.07v0.07h0.07v0.13h-0.13v-0.07h-0.07v-0.07h-0.26v0.07h-0.07v0.53h0.07V26.73z"/>
			<path d="M25.81,26.47v0.4h-0.13v-0.92h0.13v0.4h0.4v-0.4h0.13v0.92h-0.13v-0.4H25.81z"/>
			<path d="M26.6,26.33v0.53h-0.13v-0.92h0.13v0.2h0.07v0.07h0.07v0.07h0.07v0.07h0.07v0.07h0.07v0.07H27v-0.53h0.13v0.92H27v-0.2
				h-0.07V26.6h-0.07v-0.07H26.8v-0.07h-0.07V26.4h-0.07v-0.07H26.6z"/>
			<path d="M27.39,26v-0.07h0.4V26h0.07v0.07h0.07v0.66h-0.07v0.07h-0.07v0.07h-0.4V26.8h-0.07v-0.07h-0.07v-0.66h0.07V26H27.39z
				 M27.72,26.07h-0.26v0.07h-0.07v0.53h0.07v0.07h0.26v-0.07h0.07v-0.53h-0.07V26.07z"/>
			<path d="M28.05,26.86v-0.92h0.13v0.79h0.53v0.13H28.05z"/>
			<path d="M28.97,26v-0.07h0.4V26h0.07v0.07h0.07v0.66h-0.07v0.07h-0.07v0.07h-0.4V26.8h-0.07v-0.07h-0.07v-0.66h0.07V26H28.97z
				 M29.3,26.07h-0.26v0.07h-0.07v0.53h0.07v0.07h0.26v-0.07h0.07v-0.53H29.3V26.07z"/>
			<path d="M30.22,26.07h0.07v0.13h-0.13v-0.07h-0.07v-0.07h-0.26v0.07h-0.07v0.53h0.07v0.07h0.26v-0.07h0.07v-0.2h-0.2v-0.13h0.33
				v0.4h-0.07v0.07h-0.07v0.07h-0.4V26.8H29.7v-0.07h-0.07v-0.66h0.07V26h0.07v-0.07h0.4V26h0.07V26.07z"/>
			<path d="M30.82,26.86h-0.13v-0.33h-0.07v-0.07h-0.07V26.4h-0.07v-0.07h-0.07v-0.4h0.13v0.33h0.07v0.07h0.07v0.07h0.13v-0.07h0.07
				v-0.07h0.07v-0.33h0.13v0.4h-0.07v0.07h-0.07v0.07h-0.07v0.07h-0.07V26.86z"/>
		</g>
	</g>
	<g>
		<path d="M46.73,21.38v-9.57h5.47v0.68h0.68v0.68h0.68v2.73h-0.68v1.37h0.68v2.73h-0.68v0.68H52.2v0.68H46.73z M48.09,15.92h3.42
			v-0.68h0.68v-1.37h-0.68v-0.68h-3.42V15.92z M48.09,20.02h3.42v-0.68h0.68v-1.37h-0.68v-0.68h-3.42V20.02z"/>
		<path d="M56.3,21.38h-1.37v-6.84h0.68v-0.68h0.68v-0.68h0.68V12.5h0.68v-0.68h1.37v0.68h0.68v0.68h0.68v0.68h0.68v0.68h0.68v6.84
			H60.4v-2.73h-4.1V21.38z M56.3,17.28h4.1v-2.05h-0.68v-0.68h-0.68v-0.68h-1.37v0.68h-0.68v0.68H56.3V17.28z"/>
		<path d="M63.13,21.38v-9.57h1.37v8.2h5.47v1.37H63.13z"/>
		<path d="M78.17,11.81v1.37H72.7v2.73h4.1v1.37h-4.1v2.73h5.47v1.37h-6.84v-9.57H78.17z"/>
		<path d="M90.48,13.18h-2.73v-1.37h6.84v1.37h-2.73v8.2h-1.37V13.18z"/>
		<path d="M102.78,11.81v1.37h-5.47v2.73h4.1v1.37h-4.1v2.73h5.47v1.37h-6.84v-9.57H102.78z"/>
		<path d="M106.2,20.02h2.73v-0.68h0.68v-0.68h1.37v1.37h-0.68v0.68h-0.68v0.68h-4.1V20.7h-0.68v-0.68h-0.68v-6.84h0.68V12.5h0.68
			v-0.68h4.1v0.68h0.68v0.68h0.68v1.37h-1.37v-0.68h-0.68v-0.68h-2.73v0.68h-0.68v5.47h0.68V20.02z"/>
		<path d="M113.72,17.28v4.1h-1.37v-9.57h1.37v4.1h4.1v-4.1h1.37v9.57h-1.37v-4.1H113.72z"/>
		<path d="M121.92,15.92v5.47h-1.37v-9.57h1.37v2.05h0.68v0.68h0.68v0.68h0.68v0.68h0.68v0.68h0.68v0.68h0.68v-5.47h1.37v9.57h-1.37
			v-2.05h-0.68v-0.68h-0.68v-0.68h-0.68v-0.68h-0.68V16.6h-0.68v-0.68H121.92z"/>
		<path d="M130.13,12.5v-0.68h4.1v0.68h0.68v0.68h0.68v6.84h-0.68v0.68h-0.68v0.68h-4.1V20.7h-0.68v-0.68h-0.68v-6.84h0.68V12.5
			H130.13z M133.54,13.18h-2.73v0.68h-0.68v5.47h0.68v0.68h2.73v-0.68h0.68v-5.47h-0.68V13.18z"/>
		<path d="M136.96,21.38v-9.57h1.37v8.2h5.47v1.37H136.96z"/>
		<path d="M146.53,12.5v-0.68h4.1v0.68h0.68v0.68H152v6.84h-0.68v0.68h-0.68v0.68h-4.1V20.7h-0.68v-0.68h-0.68v-6.84h0.68V12.5
			H146.53z M149.95,13.18h-2.73v0.68h-0.68v5.47h0.68v0.68h2.73v-0.68h0.68v-5.47h-0.68V13.18z"/>
		<path d="M159.52,13.18h0.68v1.37h-1.37v-0.68h-0.68v-0.68h-2.73v0.68h-0.68v5.47h0.68v0.68h2.73v-0.68h0.68v-2.05h-2.05v-1.37
			h3.42v4.1h-0.68v0.68h-0.68v0.68h-4.1V20.7h-0.68v-0.68h-0.68v-6.84h0.68V12.5h0.68v-0.68h4.1v0.68h0.68V13.18z"/>
		<path d="M165.67,21.38h-1.37v-3.42h-0.68v-0.68h-0.68V16.6h-0.68v-0.68h-0.68v-4.1h1.37v3.42h0.68v0.68h0.68v0.68h1.37v-0.68h0.68
			v-0.68h0.68v-3.42h1.37v4.1h-0.68v0.68h-0.68v0.68h-0.68v0.68h-0.68V21.38z"/>
		<path d="M52.88,29.98h0.68v1.37H52.2v-0.68h-0.68v-0.68h-2.73v0.68h-0.68v1.37h0.68v0.68h3.42v0.68h0.68v0.68h0.68v2.73h-0.68
			v0.68H52.2v0.68h-4.1V37.5h-0.68v-0.68h-0.68v-1.37h1.37v0.68h0.68v0.68h2.73v-0.68h0.68v-1.37h-0.68v-0.68h-3.42V33.4h-0.68
			v-0.68h-0.68v-2.73h0.68V29.3h0.68v-0.68h4.1v0.68h0.68V29.98z"/>
		<path d="M56.3,29.3v-0.68h4.1v0.68h0.68v0.68h0.68v6.84h-0.68v0.68H60.4v0.68h-4.1V37.5h-0.68v-0.68h-0.68v-6.84h0.68V29.3H56.3z
			 M59.72,29.98h-2.73v0.68H56.3v5.47h0.68v0.68h2.73v-0.68h0.68v-5.47h-0.68V29.98z"/>
		<path d="M63.13,38.19v-9.57h1.37v8.2h5.47v1.37H63.13z"/>
		<path d="M72.02,36.82h-0.68v-8.2h1.37v7.52h0.68v0.68h2.73v-0.68h0.68v-7.52h1.37v8.2h-0.68v0.68h-0.68v0.68h-4.1V37.5h-0.68
			V36.82z"/>
		<path d="M82.27,29.98h-2.73v-1.37h6.84v1.37h-2.73v8.2h-1.37V29.98z"/>
		<path d="M89.11,38.19v-1.37h1.37v-6.84h-1.37v-1.37h4.1v1.37h-1.37v6.84h1.37v1.37H89.11z"/>
		<path d="M97.31,29.3v-0.68h4.1v0.68h0.68v0.68h0.68v6.84h-0.68v0.68h-0.68v0.68h-4.1V37.5h-0.68v-0.68h-0.68v-6.84h0.68V29.3
			H97.31z M100.73,29.98H98v0.68h-0.68v5.47H98v0.68h2.73v-0.68h0.68v-5.47h-0.68V29.98z"/>
		<path d="M105.52,32.72v5.47h-1.37v-9.57h1.37v2.05h0.68v0.68h0.68v0.68h0.68v0.68h0.68v0.68h0.68v0.68h0.68v-5.47h1.37v9.57h-1.37
			v-2.05h-0.68v-0.68h-0.68v-0.68h-0.68v-0.68h-0.68V33.4h-0.68v-0.68H105.52z"/>
		<path d="M118.5,29.98h0.68v1.37h-1.37v-0.68h-0.68v-0.68h-2.73v0.68h-0.68v1.37h0.68v0.68h3.42v0.68h0.68v0.68h0.68v2.73h-0.68
			v0.68h-0.68v0.68h-4.1V37.5h-0.68v-0.68h-0.68v-1.37h1.37v0.68h0.68v0.68h2.73v-0.68h0.68v-1.37h-0.68v-0.68h-3.42V33.4h-0.68
			v-0.68h-0.68v-2.73h0.68V29.3h0.68v-0.68h4.1v0.68h0.68V29.98z"/>
	</g>
</g>
</svg>
